<?xml version="1.0" standalone="no"?>
<!DOCTYPE svg PUBLIC "-//W3C//DTD SVG 20010904//EN"
 "http://www.w3.org/TR/2001/REC-SVG-20010904/DTD/svg10.dtd">
<svg version="1.0" xmlns="http://www.w3.org/2000/svg"
 width="527.000000pt" height="527.000000pt" viewBox="0 0 527.000000 527.000000"
 preserveAspectRatio="xMidYMid meet">
<metadata>
Created by potrace 1.11, written by Peter Selinger 2001-2013
</metadata>
<g transform="translate(0.000000,527.000000) scale(0.100000,-0.100000)"
fill="#000000" stroke="none">
<path d="M4338 4319 c-27 -20 -50 -25 -162 -34 -33 -3 -65 -10 -73 -16 -7 -6
-13 -9 -13 -6 0 3 -24 -1 -52 -9 -48 -14 -80 -34 -172 -106 -43 -34 -96 -90
-96 -102 0 -6 -11 -21 -24 -33 -22 -21 -95 -160 -111 -213 -13 -40 -103 -153
-147 -182 -23 -16 -52 -29 -65 -29 -12 -1 -26 -2 -30 -3 -25 -5 -244 -91 -276
-107 -10 -6 -44 -18 -75 -29 -145 -47 -320 -110 -352 -125 -37 -17 -42 -20
-135 -76 -33 -20 -78 -42 -100 -49 -22 -7 -48 -16 -57 -21 -166 -83 -197 -102
-202 -123 -7 -27 -64 -65 -197 -131 -30 -15 -61 -31 -69 -36 -27 -16 -139 -67
-162 -74 -19 -6 -72 -25 -203 -75 -39 -15 -141 -39 -195 -45 -56 -7 -110 -29
-110 -44 0 -5 12 -16 26 -26 25 -16 91 -21 166 -10 16 2 30 0 33 -5 5 -8 -54
-40 -73 -40 -5 0 -15 -6 -21 -14 -20 -24 34 -35 130 -25 108 10 113 12 190 46
35 17 78 33 94 37 17 4 65 21 107 38 107 44 117 26 28 -46 -25 -20 -65 -53
-89 -73 -54 -46 -86 -67 -173 -109 -36 -18 -69 -38 -73 -44 -3 -5 -10 -8 -15
-5 -5 3 -34 -9 -65 -26 -31 -17 -102 -50 -158 -74 -56 -23 -129 -59 -162 -79
-67 -41 -138 -66 -230 -80 -23 -4 -51 -8 -63 -11 -36 -7 -215 -56 -237 -65
-11 -5 -42 -12 -68 -15 -26 -4 -74 -15 -105 -25 -31 -11 -66 -20 -77 -20 -11
0 -29 -7 -39 -15 -11 -8 -28 -15 -38 -15 -10 0 -18 -3 -18 -8 0 -13 -96 -51
-117 -46 -11 3 -24 1 -27 -5 -4 -6 -14 -11 -23 -11 -9 0 -31 -11 -48 -24 -18
-14 -44 -28 -58 -31 -38 -10 -64 -42 -50 -63 5 -9 19 -17 30 -17 11 0 27 -6
36 -13 20 -17 158 -7 201 15 15 8 51 16 80 18 28 1 78 12 111 24 32 12 81 21
107 21 26 0 49 4 52 9 3 5 17 8 30 9 14 0 46 12 73 27 54 30 219 88 235 83 6
-2 -13 -21 -43 -41 -30 -20 -79 -55 -109 -76 -30 -22 -125 -83 -210 -137 -174
-110 -294 -198 -333 -244 -15 -17 -31 -28 -37 -25 -14 9 -50 -4 -50 -18 -1 -7
-14 -28 -30 -47 -52 -60 -35 -75 78 -65 97 8 106 11 321 111 51 24 103 46 115
48 11 2 41 13 66 24 82 37 118 52 125 52 5 0 31 15 59 34 28 18 74 47 102 62
83 47 135 83 211 145 39 33 74 55 77 51 3 -5 -11 -29 -32 -53 -58 -69 -87 -95
-201 -182 -35 -27 -71 -57 -81 -66 -29 -27 -58 -49 -102 -78 -24 -15 -45 -31
-48 -34 -3 -4 -23 -16 -45 -28 -87 -48 -121 -71 -157 -110 -20 -23 -44 -41
-51 -41 -8 0 -21 -7 -28 -16 -8 -9 -31 -27 -51 -41 -57 -35 -79 -55 -89 -82
-15 -38 3 -49 79 -47 116 3 244 68 396 200 50 44 93 83 96 86 19 22 135 102
182 126 78 38 200 129 301 224 79 74 117 95 117 66 0 -8 -31 -42 -68 -75 -38
-34 -78 -77 -88 -97 -19 -35 -36 -57 -122 -152 -23 -26 -47 -64 -53 -85 -11
-41 -51 -113 -100 -180 -47 -65 -119 -179 -119 -189 0 -5 9 -6 20 -3 11 4 20
2 20 -4 0 -6 8 -11 18 -11 33 0 89 63 269 305 51 70 123 161 156 198 15 18 51
62 80 98 28 37 71 79 94 94 24 15 53 40 65 57 13 17 34 42 48 57 14 14 32 39
40 55 23 44 55 61 86 47 l26 -12 -27 -20 c-37 -30 -79 -99 -77 -128 1 -13 -8
-39 -19 -58 -18 -28 -20 -39 -11 -58 9 -19 8 -33 -4 -60 -16 -38 -12 -55 12
-55 8 0 23 -5 33 -12 20 -12 33 -7 241 91 19 9 67 35 107 59 39 23 76 42 82
42 5 0 21 -11 34 -24 14 -13 46 -36 73 -51 130 -69 258 -157 293 -199 12 -14
9 -18 -23 -31 -19 -8 -42 -25 -50 -38 -19 -30 -20 -107 0 -107 8 0 14 5 14 11
0 7 13 24 28 38 85 79 105 86 180 70 20 -5 54 -11 75 -14 l38 -6 -24 -33 c-19
-24 -23 -36 -16 -49 7 -11 6 -24 -2 -38 -7 -14 -7 -25 -1 -31 6 -6 12 -1 16
15 4 16 15 27 33 32 14 3 43 23 62 43 37 37 75 60 99 56 6 -1 16 -2 22 -3 21
-2 60 -76 60 -113 0 -21 4 -38 9 -38 11 0 21 25 21 50 0 9 7 23 15 30 8 7 15
24 15 37 0 14 3 23 8 21 4 -2 23 -9 42 -17 42 -16 66 -46 75 -92 8 -49 9 -49
35 -99 12 -25 22 -46 21 -48 -2 -2 0 -6 3 -10 6 -6 10 14 7 36 -1 8 5 22 14
32 11 13 13 20 5 25 -8 5 -6 12 5 25 14 15 15 25 6 57 -6 21 -11 43 -11 49 0
18 37 23 58 8 18 -12 54 -75 57 -99 1 -5 3 -14 4 -20 2 -11 51 92 51 107 0 14
-60 68 -75 68 -6 0 -26 7 -43 16 -55 27 -74 29 -209 17 -50 -5 -107 -5 -126
-1 -32 7 -102 43 -202 104 -65 39 -95 55 -95 49 0 -3 -24 17 -52 45 -29 27
-57 50 -61 50 -16 0 -157 99 -148 104 4 3 64 8 132 10 68 3 144 11 169 19 28
8 56 11 74 6 30 -8 118 5 166 24 8 3 51 13 95 22 44 9 105 27 135 41 30 14
105 44 165 65 164 59 190 73 309 169 91 73 346 323 346 340 0 4 4 10 9 12 16
5 184 310 209 378 13 36 30 72 38 81 8 9 17 26 19 38 2 12 11 34 19 49 68 127
85 164 80 177 -4 9 0 15 7 15 25 1 109 143 94 158 -2 3 5 17 16 33 11 16 29
54 39 84 30 86 94 194 150 253 27 29 50 59 50 66 0 7 15 24 34 37 18 13 56 52
85 86 28 35 65 70 82 78 16 9 38 23 47 31 9 8 28 24 42 34 l25 19 -56 -1 c-66
0 -162 18 -204 39 -16 9 -50 32 -75 52 -25 21 -65 51 -90 68 -25 17 -60 45
-78 61 -18 17 -49 36 -70 43 -20 7 -46 18 -57 25 -11 7 -42 13 -70 14 -27 1
-63 3 -80 5 -16 2 -52 4 -79 4 -42 1 -47 3 -36 16 19 23 -9 19 -42 -6z m-1833
-2646 c22 -10 42 -20 45 -23 19 -23 183 -130 198 -130 4 0 25 -18 47 -40 25
-24 52 -41 68 -42 16 -1 33 -8 39 -15 6 -7 16 -13 23 -13 7 0 19 -7 26 -16 7
-9 24 -20 37 -25 33 -13 19 -29 -16 -18 -15 5 -57 11 -94 15 -66 5 -70 7 -141
69 -10 9 -37 25 -60 37 -23 13 -46 26 -52 30 -37 30 -105 78 -109 78 -3 0 -25
18 -48 41 -23 22 -55 47 -70 55 -15 8 -28 17 -28 20 0 10 95 -6 135 -23z"/>
</g>
</svg>
